<mxfile host="65bd71144e">
    <diagram id="EM-P6hWqXpQ67DBKpDgs" name="ページ1">
        <mxGraphModel dx="1552" dy="1142" grid="1" gridSize="10" guides="1" tooltips="1" connect="1" arrows="1" fold="1" page="1" pageScale="1" pageWidth="827" pageHeight="1169" math="0" shadow="0">
            <root>
                <mxCell id="0"/>
                <mxCell id="1" parent="0"/>
                <mxCell id="2" value="&lt;b&gt;&amp;nbsp;バックエンドアプリケーション&lt;/b&gt;" style="whiteSpace=wrap;html=1;align=left;fontSize=18;verticalAlign=top;fontFamily=Noto Sans JP;fontSource=https%3A%2F%2Ffonts.googleapis.com%2Fcss%3Ffamily%3DNoto%2BSans%2BJP;fillColor=none;" parent="1" vertex="1">
                    <mxGeometry x="40" y="40" width="480" height="800" as="geometry"/>
                </mxCell>
                <mxCell id="3" value="&lt;b&gt;&amp;nbsp;フロントエンドアプリケーション&lt;/b&gt;" style="whiteSpace=wrap;html=1;align=left;fontSize=18;verticalAlign=top;fontFamily=Noto Sans JP;fontSource=https%3A%2F%2Ffonts.googleapis.com%2Fcss%3Ffamily%3DNoto%2BSans%2BJP;fillColor=none;" parent="1" vertex="1">
                    <mxGeometry x="760" y="40" width="480" height="800" as="geometry"/>
                </mxCell>
                <mxCell id="4" value="API呼び出し" style="whiteSpace=wrap;html=1;labelBackgroundColor=none;fontFamily=Noto Sans JP;fontSource=https%3A%2F%2Ffonts.googleapis.com%2Fcss%3Ffamily%3DNoto%2BSans%2BJP;fontSize=18;fillColor=#FFFFFF;" parent="1" vertex="1">
                    <mxGeometry x="773" y="90" width="447" height="40" as="geometry"/>
                </mxCell>
                <mxCell id="5" value="処理実行" style="whiteSpace=wrap;html=1;labelBackgroundColor=none;fontFamily=Noto Sans JP;fontSource=https%3A%2F%2Ffonts.googleapis.com%2Fcss%3Ffamily%3DNoto%2BSans%2BJP;fontSize=18;fillColor=#FFFFFF;" parent="1" vertex="1">
                    <mxGeometry x="60" y="90" width="440" height="40" as="geometry"/>
                </mxCell>
                <mxCell id="6" value="" style="edgeStyle=none;orthogonalLoop=1;jettySize=auto;html=1;fontFamily=Noto Sans JP;fontSource=https%3A%2F%2Ffonts.googleapis.com%2Fcss%3Ffamily%3DNoto%2BSans%2BJP;fontSize=18;exitX=0;exitY=0.5;exitDx=0;exitDy=0;" parent="1" edge="1">
                    <mxGeometry width="100" relative="1" as="geometry">
                        <mxPoint x="773" y="97" as="sourcePoint"/>
                        <mxPoint x="500" y="97" as="targetPoint"/>
                        <Array as="points"/>
                    </mxGeometry>
                </mxCell>
                <mxCell id="7" value="エラー処理実行" style="whiteSpace=wrap;html=1;labelBackgroundColor=none;fontFamily=Noto Sans JP;fontSource=https%3A%2F%2Ffonts.googleapis.com%2Fcss%3Ffamily%3DNoto%2BSans%2BJP;fontSize=18;verticalAlign=top;fillColor=#ffe6cc;strokeColor=#000000;" parent="1" vertex="1">
                    <mxGeometry x="60" y="220" width="439" height="610" as="geometry"/>
                </mxCell>
                <mxCell id="65" value="&lt;ul&gt;&lt;li&gt;例外ID: catalogIdNotFound&lt;/li&gt;&lt;li&gt;例外値: 0001(catalogId)&lt;/li&gt;&lt;/ul&gt;" style="text;strokeColor=none;fillColor=none;html=1;whiteSpace=wrap;verticalAlign=bottom;overflow=hidden;labelBackgroundColor=none;fontFamily=Noto Sans JP;fontSource=https%3A%2F%2Ffonts.googleapis.com%2Fcss%3Ffamily%3DNoto%2BSans%2BJP;fontSize=18;fontColor=#000000;" parent="7" vertex="1">
                    <mxGeometry x="50" y="20" width="389" height="90" as="geometry"/>
                </mxCell>
                <mxCell id="8" value="" style="edgeStyle=none;orthogonalLoop=1;jettySize=auto;html=1;fontFamily=Noto Sans JP;fontSource=https%3A%2F%2Ffonts.googleapis.com%2Fcss%3Ffamily%3DNoto%2BSans%2BJP;fontSize=18;exitX=0.5;exitY=1;exitDx=0;exitDy=0;" parent="1" source="5" target="7" edge="1">
                    <mxGeometry width="100" relative="1" as="geometry">
                        <mxPoint x="690" y="125" as="sourcePoint"/>
                        <mxPoint x="490" y="125" as="targetPoint"/>
                        <Array as="points"/>
                    </mxGeometry>
                </mxCell>
                <mxCell id="9" value="" style="verticalLabelPosition=bottom;verticalAlign=top;html=1;shape=mxgraph.basic.8_point_star;labelBackgroundColor=#FFFFFF;fontFamily=Noto Sans JP;fontSource=https%3A%2F%2Ffonts.googleapis.com%2Fcss%3Ffamily%3DNoto%2BSans%2BJP;fontSize=18;fillColor=#FF3333;strokeColor=none;align=center;horizontal=0;" parent="1" vertex="1">
                    <mxGeometry x="141" y="144" width="260" height="60" as="geometry"/>
                </mxCell>
                <mxCell id="10" value="エラー発生" style="text;html=1;align=center;verticalAlign=middle;resizable=0;points=[];autosize=1;strokeColor=none;fillColor=none;fontSize=18;fontFamily=Noto Sans JP;fontColor=#FFFFFF;" parent="1" vertex="1">
                    <mxGeometry x="216" y="154" width="110" height="40" as="geometry"/>
                </mxCell>
                <mxCell id="11" value="&lt;font color=&quot;#000000&quot;&gt;/api/catalog-items&lt;/font&gt;" style="text;html=1;align=center;verticalAlign=middle;resizable=0;points=[];autosize=1;strokeColor=none;fillColor=none;fontSize=18;fontFamily=Noto Sans JP;fontColor=#FFFFFF;" parent="1" vertex="1">
                    <mxGeometry x="540" y="57" width="180" height="40" as="geometry"/>
                </mxCell>
                <mxCell id="66" value="引数" style="text;html=1;align=center;verticalAlign=middle;resizable=0;points=[];autosize=1;strokeColor=none;fillColor=none;fontSize=18;fontFamily=Noto Sans JP;fontColor=#000000;fontStyle=5" parent="1" vertex="1">
                    <mxGeometry x="61" y="250" width="60" height="40" as="geometry"/>
                </mxCell>
                <mxCell id="68" value="①ログの出力" style="shape=ext;double=1;rounded=0;whiteSpace=wrap;html=1;labelBackgroundColor=none;fontFamily=Noto Sans JP;fontSource=https%3A%2F%2Ffonts.googleapis.com%2Fcss%3Ffamily%3DNoto%2BSans%2BJP;fontSize=18;fontColor=#000000;fillColor=#FFFFFF;align=left;verticalAlign=top;" parent="1" vertex="1">
                    <mxGeometry x="110" y="320" width="360" height="230" as="geometry"/>
                </mxCell>
                <mxCell id="18" value="&lt;font style=&quot;&quot;&gt;&lt;font color=&quot;#000066&quot;&gt;&lt;b&gt;プロパティファイル&lt;/b&gt;&lt;/font&gt;&lt;br&gt;&lt;font style=&quot;font-size: 15px;&quot;&gt;&amp;nbsp;catalogIdNotFound =&amp;nbsp;&lt;/font&gt;&lt;br&gt;&lt;span style=&quot;font-family: Consolas, &amp;quot;Courier New&amp;quot;, monospace;&quot;&gt;&lt;font style=&quot;font-size: 15px;&quot;&gt;&amp;nbsp; &amp;nbsp;商品ID:{0}の商品が見つかりませんでした。&lt;/font&gt;&lt;/span&gt;&lt;/font&gt;" style="shape=note;whiteSpace=wrap;html=1;backgroundOutline=1;darkOpacity=0.05;labelBackgroundColor=none;fontFamily=Noto Sans JP;fontSource=https%3A%2F%2Ffonts.googleapis.com%2Fcss%3Ffamily%3DNoto%2BSans%2BJP;fontSize=18;fontColor=#000000;fillColor=#FFFFFF;align=left;verticalAlign=top;" parent="1" vertex="1">
                    <mxGeometry x="121" y="353" width="339" height="80" as="geometry"/>
                </mxCell>
                <mxCell id="69" value="②エラーレスポンスの整形" style="shape=ext;double=1;rounded=0;whiteSpace=wrap;html=1;labelBackgroundColor=none;fontFamily=Noto Sans JP;fontSource=https%3A%2F%2Ffonts.googleapis.com%2Fcss%3Ffamily%3DNoto%2BSans%2BJP;fontSize=18;fontColor=#000000;fillColor=#FFFFFF;align=left;verticalAlign=top;" parent="1" vertex="1">
                    <mxGeometry x="110" y="560" width="360" height="260" as="geometry"/>
                </mxCell>
                <mxCell id="46" value="ProblemDetail" style="shape=table;startSize=30;container=1;collapsible=0;childLayout=tableLayout;fixedRows=1;rowLines=0;fontStyle=1;labelBackgroundColor=none;fontFamily=Noto Sans JP;fontSource=https%3A%2F%2Ffonts.googleapis.com%2Fcss%3Ffamily%3DNoto%2BSans%2BJP;fontSize=18;fontColor=#FFFFFF;fillColor=#FF9999;" parent="1" vertex="1">
                    <mxGeometry x="131" y="627" width="320" height="180" as="geometry"/>
                </mxCell>
                <mxCell id="47" value="" style="shape=tableRow;horizontal=0;startSize=0;swimlaneHead=0;swimlaneBody=0;top=0;left=0;bottom=0;right=0;collapsible=0;dropTarget=0;fillColor=none;points=[[0,0.5],[1,0.5]];portConstraint=eastwest;labelBackgroundColor=none;fontFamily=Noto Sans JP;fontSource=https%3A%2F%2Ffonts.googleapis.com%2Fcss%3Ffamily%3DNoto%2BSans%2BJP;fontSize=18;fontColor=#000000;" parent="46" vertex="1">
                    <mxGeometry y="30" width="320" height="30" as="geometry"/>
                </mxCell>
                <mxCell id="48" value="status" style="shape=partialRectangle;html=1;whiteSpace=wrap;connectable=0;fillColor=none;top=0;left=0;bottom=0;right=0;overflow=hidden;pointerEvents=1;labelBackgroundColor=none;fontFamily=Noto Sans JP;fontSource=https%3A%2F%2Ffonts.googleapis.com%2Fcss%3Ffamily%3DNoto%2BSans%2BJP;fontSize=18;fontColor=#000000;" parent="47" vertex="1">
                    <mxGeometry width="143" height="30" as="geometry">
                        <mxRectangle width="143" height="30" as="alternateBounds"/>
                    </mxGeometry>
                </mxCell>
                <mxCell id="49" value="400" style="shape=partialRectangle;html=1;whiteSpace=wrap;connectable=0;fillColor=none;top=0;left=0;bottom=0;right=0;align=left;spacingLeft=6;overflow=hidden;labelBackgroundColor=none;fontFamily=Noto Sans JP;fontSource=https%3A%2F%2Ffonts.googleapis.com%2Fcss%3Ffamily%3DNoto%2BSans%2BJP;fontSize=18;fontColor=#000000;" parent="47" vertex="1">
                    <mxGeometry x="143" width="177" height="30" as="geometry">
                        <mxRectangle width="177" height="30" as="alternateBounds"/>
                    </mxGeometry>
                </mxCell>
                <mxCell id="50" value="" style="shape=tableRow;horizontal=0;startSize=0;swimlaneHead=0;swimlaneBody=0;top=0;left=0;bottom=0;right=0;collapsible=0;dropTarget=0;fillColor=none;points=[[0,0.5],[1,0.5]];portConstraint=eastwest;labelBackgroundColor=none;fontFamily=Noto Sans JP;fontSource=https%3A%2F%2Ffonts.googleapis.com%2Fcss%3Ffamily%3DNoto%2BSans%2BJP;fontSize=18;fontColor=#000000;" parent="46" vertex="1">
                    <mxGeometry y="60" width="320" height="30" as="geometry"/>
                </mxCell>
                <mxCell id="51" value="title" style="shape=partialRectangle;html=1;whiteSpace=wrap;connectable=0;fillColor=none;top=0;left=0;bottom=0;right=0;overflow=hidden;labelBackgroundColor=none;fontFamily=Noto Sans JP;fontSource=https%3A%2F%2Ffonts.googleapis.com%2Fcss%3Ffamily%3DNoto%2BSans%2BJP;fontSize=18;fontColor=#000000;" parent="50" vertex="1">
                    <mxGeometry width="143" height="30" as="geometry">
                        <mxRectangle width="143" height="30" as="alternateBounds"/>
                    </mxGeometry>
                </mxCell>
                <mxCell id="52" value="業務エラー" style="shape=partialRectangle;html=1;whiteSpace=wrap;connectable=0;fillColor=none;top=0;left=0;bottom=0;right=0;align=left;spacingLeft=6;overflow=hidden;labelBackgroundColor=none;fontFamily=Noto Sans JP;fontSource=https%3A%2F%2Ffonts.googleapis.com%2Fcss%3Ffamily%3DNoto%2BSans%2BJP;fontSize=18;fontColor=#000000;" parent="50" vertex="1">
                    <mxGeometry x="143" width="177" height="30" as="geometry">
                        <mxRectangle width="177" height="30" as="alternateBounds"/>
                    </mxGeometry>
                </mxCell>
                <mxCell id="53" value="" style="shape=tableRow;horizontal=0;startSize=0;swimlaneHead=0;swimlaneBody=0;top=0;left=0;bottom=0;right=0;collapsible=0;dropTarget=0;fillColor=none;points=[[0,0.5],[1,0.5]];portConstraint=eastwest;labelBackgroundColor=none;fontFamily=Noto Sans JP;fontSource=https%3A%2F%2Ffonts.googleapis.com%2Fcss%3Ffamily%3DNoto%2BSans%2BJP;fontSize=18;fontColor=#000000;" parent="46" vertex="1">
                    <mxGeometry y="90" width="320" height="30" as="geometry"/>
                </mxCell>
                <mxCell id="54" value="detail" style="shape=partialRectangle;html=1;whiteSpace=wrap;connectable=0;fillColor=none;top=0;left=0;bottom=0;right=0;overflow=hidden;labelBackgroundColor=none;fontFamily=Noto Sans JP;fontSource=https%3A%2F%2Ffonts.googleapis.com%2Fcss%3Ffamily%3DNoto%2BSans%2BJP;fontSize=18;fontColor=#000000;" parent="53" vertex="1">
                    <mxGeometry width="143" height="30" as="geometry">
                        <mxRectangle width="143" height="30" as="alternateBounds"/>
                    </mxGeometry>
                </mxCell>
                <mxCell id="55" value="stacktrace" style="shape=partialRectangle;html=1;whiteSpace=wrap;connectable=0;fillColor=none;top=0;left=0;bottom=0;right=0;align=left;spacingLeft=6;overflow=hidden;labelBackgroundColor=none;fontFamily=Noto Sans JP;fontSource=https%3A%2F%2Ffonts.googleapis.com%2Fcss%3Ffamily%3DNoto%2BSans%2BJP;fontSize=18;fontColor=#000000;" parent="53" vertex="1">
                    <mxGeometry x="143" width="177" height="30" as="geometry">
                        <mxRectangle width="177" height="30" as="alternateBounds"/>
                    </mxGeometry>
                </mxCell>
                <mxCell id="59" value="" style="shape=tableRow;horizontal=0;startSize=0;swimlaneHead=0;swimlaneBody=0;top=0;left=0;bottom=0;right=0;collapsible=0;dropTarget=0;fillColor=none;points=[[0,0.5],[1,0.5]];portConstraint=eastwest;labelBackgroundColor=none;fontFamily=Noto Sans JP;fontSource=https%3A%2F%2Ffonts.googleapis.com%2Fcss%3Ffamily%3DNoto%2BSans%2BJP;fontSize=18;fontColor=#000000;" parent="46" vertex="1">
                    <mxGeometry y="120" width="320" height="30" as="geometry"/>
                </mxCell>
                <mxCell id="60" value="exceptionId" style="shape=partialRectangle;html=1;whiteSpace=wrap;connectable=0;fillColor=none;top=0;left=0;bottom=0;right=0;overflow=hidden;labelBackgroundColor=none;fontFamily=Noto Sans JP;fontSource=https%3A%2F%2Ffonts.googleapis.com%2Fcss%3Ffamily%3DNoto%2BSans%2BJP;fontSize=18;fontColor=#000000;" parent="59" vertex="1">
                    <mxGeometry width="143" height="30" as="geometry">
                        <mxRectangle width="143" height="30" as="alternateBounds"/>
                    </mxGeometry>
                </mxCell>
                <mxCell id="61" value="catalogIdNotFound" style="shape=partialRectangle;html=1;whiteSpace=wrap;connectable=0;fillColor=none;top=0;left=0;bottom=0;right=0;align=left;spacingLeft=6;overflow=hidden;labelBackgroundColor=none;fontFamily=Noto Sans JP;fontSource=https%3A%2F%2Ffonts.googleapis.com%2Fcss%3Ffamily%3DNoto%2BSans%2BJP;fontSize=18;fontColor=#000000;" parent="59" vertex="1">
                    <mxGeometry x="143" width="177" height="30" as="geometry">
                        <mxRectangle width="177" height="30" as="alternateBounds"/>
                    </mxGeometry>
                </mxCell>
                <mxCell id="62" value="" style="shape=tableRow;horizontal=0;startSize=0;swimlaneHead=0;swimlaneBody=0;top=0;left=0;bottom=0;right=0;collapsible=0;dropTarget=0;fillColor=none;points=[[0,0.5],[1,0.5]];portConstraint=eastwest;labelBackgroundColor=none;fontFamily=Noto Sans JP;fontSource=https%3A%2F%2Ffonts.googleapis.com%2Fcss%3Ffamily%3DNoto%2BSans%2BJP;fontSize=18;fontColor=#000000;" parent="46" vertex="1">
                    <mxGeometry y="150" width="320" height="30" as="geometry"/>
                </mxCell>
                <mxCell id="63" value="exceptionValues" style="shape=partialRectangle;html=1;whiteSpace=wrap;connectable=0;fillColor=none;top=0;left=0;bottom=0;right=0;overflow=hidden;labelBackgroundColor=none;fontFamily=Noto Sans JP;fontSource=https%3A%2F%2Ffonts.googleapis.com%2Fcss%3Ffamily%3DNoto%2BSans%2BJP;fontSize=18;fontColor=#000000;" parent="62" vertex="1">
                    <mxGeometry width="143" height="30" as="geometry">
                        <mxRectangle width="143" height="30" as="alternateBounds"/>
                    </mxGeometry>
                </mxCell>
                <mxCell id="64" value="0001" style="shape=partialRectangle;html=1;whiteSpace=wrap;connectable=0;fillColor=none;top=0;left=0;bottom=0;right=0;align=left;spacingLeft=6;overflow=hidden;labelBackgroundColor=none;fontFamily=Noto Sans JP;fontSource=https%3A%2F%2Ffonts.googleapis.com%2Fcss%3Ffamily%3DNoto%2BSans%2BJP;fontSize=18;fontColor=#000000;" parent="62" vertex="1">
                    <mxGeometry x="143" width="177" height="30" as="geometry">
                        <mxRectangle width="177" height="30" as="alternateBounds"/>
                    </mxGeometry>
                </mxCell>
                <mxCell id="70" value="" style="edgeStyle=elbowEdgeStyle;elbow=vertical;endArrow=classic;html=1;curved=0;rounded=0;endSize=8;startSize=8;fontFamily=Noto Sans JP;fontSource=https%3A%2F%2Ffonts.googleapis.com%2Fcss%3Ffamily%3DNoto%2BSans%2BJP;fontSize=18;fontColor=#000000;entryX=0;entryY=0.5;entryDx=0;entryDy=0;exitX=0.476;exitY=1.25;exitDx=0;exitDy=0;exitPerimeter=0;" parent="1" source="66" target="68" edge="1">
                    <mxGeometry width="50" height="50" relative="1" as="geometry">
                        <mxPoint x="90" y="350" as="sourcePoint"/>
                        <mxPoint x="610" y="400" as="targetPoint"/>
                        <Array as="points">
                            <mxPoint x="90" y="435"/>
                        </Array>
                    </mxGeometry>
                </mxCell>
                <mxCell id="71" value="" style="edgeStyle=elbowEdgeStyle;elbow=vertical;endArrow=classic;html=1;curved=0;rounded=0;endSize=8;startSize=8;fontFamily=Noto Sans JP;fontSource=https%3A%2F%2Ffonts.googleapis.com%2Fcss%3Ffamily%3DNoto%2BSans%2BJP;fontSize=18;fontColor=#000000;entryX=0;entryY=0.5;entryDx=0;entryDy=0;exitX=0.5;exitY=1.143;exitDx=0;exitDy=0;exitPerimeter=0;" parent="1" edge="1">
                    <mxGeometry width="50" height="50" relative="1" as="geometry">
                        <mxPoint x="90" y="296.72" as="sourcePoint"/>
                        <mxPoint x="109" y="690.9999999999998" as="targetPoint"/>
                        <Array as="points">
                            <mxPoint x="79" y="690"/>
                        </Array>
                    </mxGeometry>
                </mxCell>
                <mxCell id="72" value="例外IDと例外値をエラーレスポンスに含める" style="text;html=1;align=center;verticalAlign=middle;resizable=0;points=[];autosize=1;strokeColor=none;fillColor=none;fontSize=15;fontFamily=Noto Sans JP;fontColor=#000000;labelBackgroundColor=none;fontSource=https%3A%2F%2Ffonts.googleapis.com%2Fcss%3Ffamily%3DNoto%2BSans%2BJP;" parent="1" vertex="1">
                    <mxGeometry x="132" y="597" width="320" height="30" as="geometry"/>
                </mxCell>
                <mxCell id="73" value="例外IDをもとにプロパティファイルを検索し&lt;br&gt;&lt;div style=&quot;text-align: left;&quot;&gt;&lt;span style=&quot;background-color: initial;&quot;&gt;例外値を代入してログを出力する&lt;/span&gt;&lt;/div&gt;" style="text;html=1;align=center;verticalAlign=middle;resizable=0;points=[];autosize=1;strokeColor=none;fillColor=none;fontSize=15;fontFamily=Noto Sans JP;fontColor=#000000;labelBackgroundColor=none;fontSource=https%3A%2F%2Ffonts.googleapis.com%2Fcss%3Ffamily%3DNoto%2BSans%2BJP;" parent="1" vertex="1">
                    <mxGeometry x="121" y="433" width="320" height="50" as="geometry"/>
                </mxCell>
                <mxCell id="74" value="&lt;b&gt;2024/11/20 19:31:03 商品ID:0001の商品が見つかりませんでした。&lt;/b&gt;" style="rounded=1;whiteSpace=wrap;html=1;labelBackgroundColor=none;fontFamily=Noto Sans JP;fontSource=https%3A%2F%2Ffonts.googleapis.com%2Fcss%3Ffamily%3DNoto%2BSans%2BJP;fontSize=15;fontColor=#FFFFFF;fillColor=#000000;strokeColor=none;align=left;" parent="1" vertex="1">
                    <mxGeometry x="125.5" y="484" width="329" height="57" as="geometry"/>
                </mxCell>
                <mxCell id="76" value="エラー処理実行" style="whiteSpace=wrap;html=1;labelBackgroundColor=none;fontFamily=Noto Sans JP;fontSource=https%3A%2F%2Ffonts.googleapis.com%2Fcss%3Ffamily%3DNoto%2BSans%2BJP;fontSize=18;verticalAlign=top;fillColor=#ffe6cc;strokeColor=#000000;" parent="1" vertex="1">
                    <mxGeometry x="773" y="220" width="447" height="610" as="geometry"/>
                </mxCell>
                <mxCell id="78" value="" style="edgeStyle=none;orthogonalLoop=1;jettySize=auto;html=1;fontFamily=Noto Sans JP;fontSource=https%3A%2F%2Ffonts.googleapis.com%2Fcss%3Ffamily%3DNoto%2BSans%2BJP;fontSize=18;entryX=0.5;entryY=0;entryDx=0;entryDy=0;" parent="1" target="76" edge="1">
                    <mxGeometry width="100" relative="1" as="geometry">
                        <mxPoint x="997" y="130" as="sourcePoint"/>
                        <mxPoint x="750" y="280" as="targetPoint"/>
                        <Array as="points"/>
                    </mxGeometry>
                </mxCell>
                <mxCell id="79" value="③エラーの画面出力" style="shape=ext;double=1;rounded=0;whiteSpace=wrap;html=1;labelBackgroundColor=none;fontFamily=Noto Sans JP;fontSource=https%3A%2F%2Ffonts.googleapis.com%2Fcss%3Ffamily%3DNoto%2BSans%2BJP;fontSize=18;fontColor=#000000;fillColor=#FFFFFF;align=left;verticalAlign=top;" parent="1" vertex="1">
                    <mxGeometry x="790" y="315" width="410" height="505" as="geometry"/>
                </mxCell>
                <mxCell id="80" value="エラーレスポンス内のProblemDetailをもとに&lt;br&gt;画面にメッセージを表示する" style="text;html=1;align=left;verticalAlign=middle;resizable=0;points=[];autosize=1;strokeColor=none;fillColor=none;fontSize=15;fontFamily=Noto Sans JP;fontColor=#000000;labelBackgroundColor=none;fontSource=https%3A%2F%2Ffonts.googleapis.com%2Fcss%3Ffamily%3DNoto%2BSans%2BJP;" parent="1" vertex="1">
                    <mxGeometry x="790" y="260" width="330" height="50" as="geometry"/>
                </mxCell>
                <mxCell id="81" value="&lt;font&gt;400 Error&lt;/font&gt;" style="text;html=1;align=center;verticalAlign=middle;resizable=0;points=[];autosize=1;strokeColor=none;fillColor=none;fontSize=18;fontFamily=Noto Sans JP;fontColor=#FF3333;fontStyle=1" parent="1" vertex="1">
                    <mxGeometry x="530" y="649" width="100" height="40" as="geometry"/>
                </mxCell>
                <mxCell id="82" value="&lt;font style=&quot;&quot;&gt;&lt;font color=&quot;#000066&quot;&gt;&lt;b&gt;JSON ファイル&lt;/b&gt;&lt;/font&gt;&lt;br&gt;&lt;font style=&quot;font-size: 15px;&quot;&gt;&amp;nbsp;{ &lt;br&gt;&amp;nbsp; &amp;nbsp;&quot;catalogIdNotFound&quot; :&amp;nbsp;&lt;/font&gt;&lt;br&gt;&lt;span style=&quot;font-family: Consolas, &amp;quot;Courier New&amp;quot;, monospace;&quot;&gt;&lt;font style=&quot;font-size: 15px;&quot;&gt;&amp;nbsp; &quot;商品ID:[0] の商品はありません。&quot;&lt;br&gt;}&lt;br&gt;&lt;/font&gt;&lt;/span&gt;&lt;/font&gt;" style="shape=note;whiteSpace=wrap;html=1;backgroundOutline=1;darkOpacity=0.05;labelBackgroundColor=none;fontFamily=Noto Sans JP;fontSource=https%3A%2F%2Ffonts.googleapis.com%2Fcss%3Ffamily%3DNoto%2BSans%2BJP;fontSize=18;fontColor=#000000;fillColor=#FFFFFF;align=left;verticalAlign=top;" parent="1" vertex="1">
                    <mxGeometry x="820" y="356" width="360" height="134" as="geometry"/>
                </mxCell>
                <mxCell id="83" value="&lt;div style=&quot;&quot;&gt;&lt;span style=&quot;background-color: initial;&quot;&gt;ProblemDetailの例外IDをもとに&amp;nbsp;&lt;/span&gt;&lt;span style=&quot;background-color: initial;&quot;&gt;JSON ファイルを&lt;/span&gt;&lt;/div&gt;&lt;div style=&quot;&quot;&gt;&lt;span style=&quot;background-color: initial;&quot;&gt;検索し、&lt;/span&gt;&lt;span style=&quot;background-color: initial;&quot;&gt;例外値を代入してメッセージを整形する&lt;/span&gt;&lt;/div&gt;" style="text;html=1;align=left;verticalAlign=middle;resizable=0;points=[];autosize=1;strokeColor=none;fillColor=none;fontSize=15;fontFamily=Noto Sans JP;fontColor=#000000;labelBackgroundColor=none;fontSource=https%3A%2F%2Ffonts.googleapis.com%2Fcss%3Ffamily%3DNoto%2BSans%2BJP;" parent="1" vertex="1">
                    <mxGeometry x="819" y="494" width="360" height="50" as="geometry"/>
                </mxCell>
                <mxCell id="85" value="" style="edgeStyle=elbowEdgeStyle;elbow=horizontal;endArrow=classic;html=1;curved=0;rounded=0;endSize=8;startSize=8;fontFamily=Noto Sans JP;fontSource=https%3A%2F%2Ffonts.googleapis.com%2Fcss%3Ffamily%3DNoto%2BSans%2BJP;fontSize=15;fontColor=#FF3333;exitX=1;exitY=0.5;exitDx=0;exitDy=0;entryX=0;entryY=0.75;entryDx=0;entryDy=0;" parent="1" source="69" target="4" edge="1">
                    <mxGeometry width="50" height="50" relative="1" as="geometry">
                        <mxPoint x="630" y="460" as="sourcePoint"/>
                        <mxPoint x="670" y="410" as="targetPoint"/>
                        <Array as="points">
                            <mxPoint x="640" y="410"/>
                        </Array>
                    </mxGeometry>
                </mxCell>
                <mxCell id="87" value="" style="verticalLabelPosition=bottom;verticalAlign=top;html=1;shape=mxgraph.basic.8_point_star;labelBackgroundColor=#FFFFFF;fontFamily=Noto Sans JP;fontSource=https%3A%2F%2Ffonts.googleapis.com%2Fcss%3Ffamily%3DNoto%2BSans%2BJP;fontSize=18;fillColor=#FF3333;strokeColor=none;align=center;horizontal=0;" parent="1" vertex="1">
                    <mxGeometry x="870" y="144" width="260" height="60" as="geometry"/>
                </mxCell>
                <mxCell id="86" value="エラー発生" style="text;html=1;align=center;verticalAlign=middle;resizable=0;points=[];autosize=1;strokeColor=none;fillColor=none;fontSize=18;fontFamily=Noto Sans JP;fontColor=#FFFFFF;" parent="1" vertex="1">
                    <mxGeometry x="945" y="154" width="110" height="40" as="geometry"/>
                </mxCell>
                <mxCell id="88" value="" style="verticalLabelPosition=bottom;verticalAlign=top;html=1;shape=mxgraph.basic.frame;dx=6.43;whiteSpace=wrap;labelBackgroundColor=none;fontFamily=Noto Sans JP;fontSource=https%3A%2F%2Ffonts.googleapis.com%2Fcss%3Ffamily%3DNoto%2BSans%2BJP;fontSize=15;fontColor=#FF3333;fillColor=#808080;" parent="1" vertex="1">
                    <mxGeometry x="815" y="565" width="360" height="245" as="geometry"/>
                </mxCell>
                <mxCell id="89" value="業務エラー： 商品ID: 0001 の商品はありません。" style="text;html=1;align=left;verticalAlign=middle;resizable=0;points=[];autosize=1;strokeColor=none;fillColor=none;fontSize=15;fontFamily=Noto Sans JP;fontColor=#FF3333;fontStyle=1" parent="1" vertex="1">
                    <mxGeometry x="831" y="602" width="360" height="30" as="geometry"/>
                </mxCell>
                <mxCell id="90" value="&lt;u style=&quot;&quot;&gt;&lt;font style=&quot;&quot;&gt;ステータスコード&lt;/font&gt;&lt;/u&gt;" style="text;html=1;align=left;verticalAlign=middle;resizable=0;points=[];autosize=1;strokeColor=none;fillColor=none;fontSize=15;fontFamily=Noto Sans JP;fontColor=#000000;fontStyle=1" parent="1" vertex="1">
                    <mxGeometry x="839" y="631" width="140" height="30" as="geometry"/>
                </mxCell>
                <mxCell id="91" value="&lt;u style=&quot;&quot;&gt;&lt;font style=&quot;&quot;&gt;エラー詳細&lt;/font&gt;&lt;/u&gt;" style="text;html=1;align=left;verticalAlign=middle;resizable=0;points=[];autosize=1;strokeColor=none;fillColor=none;fontSize=15;fontFamily=Noto Sans JP;fontColor=#000000;fontStyle=1" parent="1" vertex="1">
                    <mxGeometry x="839" y="685" width="100" height="30" as="geometry"/>
                </mxCell>
                <mxCell id="92" value="400" style="text;html=1;align=left;verticalAlign=middle;resizable=0;points=[];autosize=1;strokeColor=none;fillColor=none;fontSize=15;fontFamily=Noto Sans JP;fontColor=#000000;fontStyle=0" parent="1" vertex="1">
                    <mxGeometry x="859" y="657" width="50" height="30" as="geometry"/>
                </mxCell>
                <mxCell id="93" value="2024/11/20/20 19:31:03 商品ID:0001の&lt;br&gt;商品が見つかりませんでした。&lt;br&gt;catalogNotFoundException&lt;br&gt;..." style="text;html=1;align=left;verticalAlign=middle;resizable=0;points=[];autosize=1;strokeColor=none;fillColor=none;fontSize=15;fontFamily=Noto Sans JP;fontColor=#000000;fontStyle=0" parent="1" vertex="1">
                    <mxGeometry x="859" y="711" width="290" height="90" as="geometry"/>
                </mxCell>
                <mxCell id="94" value="Dressca" style="text;html=1;align=center;verticalAlign=middle;resizable=0;points=[];autosize=1;strokeColor=none;fillColor=none;fontSize=15;fontFamily=Noto Sans JP;fontColor=#000000;fontStyle=1" parent="1" vertex="1">
                    <mxGeometry x="819" y="572.5" width="80" height="30" as="geometry"/>
                </mxCell>
                <mxCell id="95" value="" style="line;strokeWidth=2;html=1;labelBackgroundColor=none;fontFamily=Noto Sans JP;fontSource=https%3A%2F%2Ffonts.googleapis.com%2Fcss%3Ffamily%3DNoto%2BSans%2BJP;fontSize=15;fontColor=#000000;fillColor=#808080;strokeColor=#CCCCCC;" parent="1" vertex="1">
                    <mxGeometry x="825" y="595.5" width="340" height="10" as="geometry"/>
                </mxCell>
            </root>
        </mxGraphModel>
    </diagram>
</mxfile>